# xmcd
#
# Track frame offsets:
#	150
#	13493
#	29116
#	42758
#	58233
#	72890
#	86704
#	102773
#	115934
#	131635
#
# Disc length: 1942 seconds
#
# Revision: 0
# Processed by: cddbd v1.4PL0 Copyright (c) Steve Scherf et al.
# Submitted via: audiograbber 1.81.02
#
DISCID=9007940a
DTITLE=Koch Records - Hit auf Hit - Express Folge 5
DYEAR=2003
DGENRE=
TTITLE0=Reiner Kirsten - So bist du
TTITLE1=Carin Posch - Ich schenk dir meine Liebe
TTITLE2=Oliver Haidt - So ein süßes Lächeln
TTITLE3=Petra Frey - Keiner kennt mich so wie du
TTITLE4=Kastelruther Spatzen - Immer wieder Spatzenfieber
TTITLE5=Bergfeuer - Hey Montanaro
TTITLE6=Karel Gott - Jede Nacht
TTITLE7=Fernando Express - Fiesta Cubana
TTITLE8=Bernhard Brink - Du hast mich verhext
TTITLE9=Judith and Mel - Ich hör' deinen Herzschlag
EXTD=
EXTT0=
EXTT1=
EXTT2=
EXTT3=
EXTT4=
EXTT5=
EXTT6=
EXTT7=
EXTT8=
EXTT9=
PLAYORDER=
